Wikipedia, Nesebar, http://en.wikipedia.org/w/index.php?title=Nesebar


--- GENERAL ------------------------------------------------------------
Complete name                    : TTV.Nesebar,pochuvstvay.vechnostta.TVRip.H264-720x576-WS.AAC-2.MixerX.mp4
Format                           : MPEG-4
Format profile                   : Base Media
Codec ID                         : isom
File size                        : 208 MiB
Duration                         : 17mn 42s
Overall bit rate                 : 1 645 Kbps
Writing application              : Lavf52.64.2

--- VIDEO --------------------------------------------------------------
ID                               : 1
Format                           : AVC
Format/Info                      : Advanced Video Codec
Format profile                   : High@L4.0
Format settings, CABAC           : Yes
Format settings, ReFrames        : 16 frames
Codec ID                         : avc1
Codec ID/Info                    : Advanced Video Coding
Duration                         : 17mn 42s
Bit rate mode                    : Variable
Bit rate                         : 1 536 Kbps
Width                            : 720 pixels
Height                           : 576 pixels
Display aspect ratio             : 16:9
Frame rate mode                  : Variable
Frame rate                       : 25.000 fps
Minimum frame rate               : 12.500 fps
Maximum frame rate               : 25.000 fps
Standard                         : PAL
Color space                      : YUV
Chroma subsampling               : 4:2:0
Bit depth                        : 8 bits
Scan type                        : Progressive
Bits/(Pixel*Frame)               : 0.148
Stream size                      : 195 MiB (93%)
Writing library                  : x264 core 115
Encoding settings                : cabac=1 / ref=16 / deblock=1:0:0 / analyse=0x3:0x133 / me=tesa / subme=10 / psy=1 / psy_rd=1.00:0.00 / mixed_ref=1 / me_range=24 / chroma_me=1 / trellis=2 / 8x8dct=1 / cqm=0 / deadzone=21,11 / fast_pskip=0 / chroma_qp_offset=-2 / threads=3 / sliced_threads=0 / nr=0 / decimate=1 / interlaced=0 / bluray_compat=0 / constrained_intra=0 / bframes=16 / b_pyramid=2 / b_adapt=2 / b_bias=0 / direct=3 / weightb=1 / open_gop=0 / weightp=2 / keyint=250 / keyint_min=25 / scenecut=40 / intra_refresh=0 / rc_lookahead=60 / rc=2pass / mbtree=1 / bitrate=1536 / ratetol=2.6 / qcomp=0.60 / qpmin=10 / qpmax=51 / qpstep=4 / cplxblur=20.0 / qblur=0.5 / ip_ratio=1.41 / aq=1:1.00
Language                         : Bulgarian

--- AUDIO --------------------------------------------------------------
ID                               : 2
Format                           : AAC
Format/Info                      : Advanced Audio Codec
Format profile                   : LC
Codec ID                         : 40
Duration                         : 17mn 42s
Bit rate mode                    : Variable
Bit rate                         : 104 Kbps
Channel(s)                       : 2 channels
Channel positions                : Front: L R
Sampling rate                    : 48.0 KHz
Compression mode                 : Lossy
Stream size                      : 13.1 MiB (6%)
Language                         : Bulgarian